<?xml version="1.0" encoding="iso-8859-1"?>
<!-- Uploaded to: SVG Repo, www.svgrepo.com, Generator: SVG Repo Mixer Tools -->
<svg height="800px" width="800px" version="1.1" id="Layer_1" xmlns="http://www.w3.org/2000/svg" xmlns:xlink="http://www.w3.org/1999/xlink" 
	 viewBox="0 0 512 512" xml:space="preserve">
<circle style="fill:#F2F2F2;" cx="256.001" cy="256.002" r="248.14"/>
<path style="fill:#E6E6E6;" d="M47.883,296.022c0-137.043,111.095-248.138,248.138-248.138c58.323,0,111.903,20.174,154.263,53.852
	C404.826,44.562,334.72,7.861,256,7.861C118.956,7.861,7.861,118.957,7.861,256.001c0,78.72,36.7,148.826,93.875,194.285
	C68.057,407.924,47.883,354.345,47.883,296.022z"/>
<circle style="fill:#29ABE2;" cx="256.001" cy="256.002" r="152.083"/>
<circle style="fill:#0071BC;" cx="256.001" cy="256.002" r="72.043"/>
<path style="fill:#1F80AA;" d="M143.937,256.001c0-77.194,57.561-140.8,132.073-150.619c-6.564-0.865-13.21-1.466-20.011-1.466
	c-83.994,0-152.084,68.091-152.084,152.084s68.091,152.084,152.084,152.084c6.801,0,13.447-0.601,20.011-1.466
	C201.498,396.8,143.937,333.193,143.937,256.001z"/>
<circle style="fill:#FFFFFF;" cx="304.03" cy="199.965" r="32.018"/>
<path d="M256,512c-68.38,0-132.666-26.628-181.019-74.981S0.001,324.38,0.001,256.001s26.628-132.667,74.98-181.02
	C123.333,26.628,187.62,0,256,0s132.666,26.628,181.019,74.981c48.351,48.352,74.981,112.639,74.981,181.019
	s-26.628,132.666-74.981,181.019C388.666,485.372,324.379,512,256,512z M256,15.723c-64.181,0-124.519,24.993-169.901,70.376
	S15.722,191.82,15.722,256.001s24.993,124.519,70.376,169.9C131.481,471.284,191.82,496.277,256,496.277
	s124.519-24.993,169.901-70.376c45.382-45.383,70.375-105.721,70.375-169.901s-24.993-124.518-70.376-169.9
	C380.519,40.716,320.179,15.723,256,15.723z"/>
<path d="M256,415.946c-88.194,0-159.946-71.751-159.946-159.947S167.805,96.054,256,96.054s159.946,71.751,159.946,159.947
	S344.194,415.946,256,415.946z M256,111.777c-79.525,0-144.223,64.699-144.223,144.224S176.474,400.223,256,400.223
	s144.223-64.698,144.223-144.223S335.525,111.777,256,111.777z"/>
<g>
	<path style="fill:#FFFFFF;" d="M151.799,256.001h-15.723c0-66.126,53.798-119.923,119.924-119.923V151.8
		C198.543,151.799,151.799,198.544,151.799,256.001z"/>
	<path style="fill:#FFFFFF;" d="M147.591,307.339c-2.611-5.504-4.815-11.253-6.552-17.089l15.07-4.485
		c1.507,5.066,3.421,10.057,5.688,14.836L147.591,307.339z"/>
</g>
<circle style="fill:#0B476F;" cx="256.001" cy="256.002" r="48.026"/>
<path d="M343.905,199.968c0-21.99-17.89-39.879-39.879-39.879c-13.673,0-25.757,6.919-32.946,17.438
	c-4.95-0.945-10.009-1.429-15.081-1.429c-44.058,0-79.901,35.843-79.901,79.901s35.843,79.901,79.901,79.901
	s79.901-35.843,79.901-79.901c0-9.314-1.561-18.337-4.648-26.931C339.031,221.786,343.905,211.438,343.905,199.968z
	 M304.026,175.813c13.319,0,24.156,10.836,24.156,24.156c0,13.321-10.836,24.157-24.156,24.157
	c-13.321,0-24.157-10.836-24.157-24.157C279.87,186.649,290.706,175.813,304.026,175.813z M320.178,256.001
	c0,35.388-28.791,64.178-64.178,64.178s-64.178-28.791-64.178-64.178s28.791-64.178,64.178-64.178c2.975,0,5.938,0.229,8.868,0.633
	c-0.466,2.435-0.72,4.945-0.72,7.515c0,21.99,17.89,39.88,39.88,39.88c4.719,0,9.246-0.829,13.452-2.341
	C319.268,243.456,320.178,249.641,320.178,256.001z"/>
<circle style="fill:#F2F2F2;" cx="304.03" cy="199.965" r="8.004"/>
</svg>