<?xml version="1.0" standalone="no"?>
<!DOCTYPE svg PUBLIC "-//W3C//DTD SVG 20010904//EN"
 "http://www.w3.org/TR/2001/REC-SVG-20010904/DTD/svg10.dtd">
<svg version="1.0" xmlns="http://www.w3.org/2000/svg"
 width="360.000000pt" height="357.000000pt" viewBox="0 0 360.000000 357.000000"
 preserveAspectRatio="xMidYMid meet">

<g transform="translate(0.000000,357.000000) scale(0.100000,-0.100000)"
fill="#000000" stroke="none">
<path d="M0 1785 l0 -1785 1165 0 1165 0 0 25 c0 21 -5 25 -31 25 -38 0 -74
34 -75 73 -2 59 -5 67 -20 67 -9 0 -12 5 -8 13 6 9 4 9 -8 -1 -12 -9 -18 -10
-23 -2 -4 6 -23 10 -43 8 -28 -2 -37 1 -40 14 -2 12 5 17 25 20 22 2 28 8 30
30 1 23 -1 25 -12 15 -7 -6 -9 -14 -4 -15 15 -6 -1 -22 -22 -22 -14 0 -19 7
-19 25 0 16 6 25 15 25 19 0 19 16 0 24 -8 3 -15 2 -15 -2 0 -4 -12 -7 -27 -6
-16 1 -33 3 -39 3 -6 1 -11 20 -12 43 -1 23 -8 45 -14 50 -7 4 -11 21 -10 38
3 28 1 30 -22 26 -18 -3 -26 0 -26 10 0 8 -8 18 -17 21 -32 12 -37 42 -19 103
4 14 4 20 -1 13 -9 -13 -25 -16 -69 -14 -30 1 -32 3 -35 45 -3 29 0 41 6 36
13 -10 40 1 40 17 0 7 -5 17 -12 24 -9 9 -11 6 -6 -12 6 -24 6 -24 -15 -6 -11
11 -18 25 -16 32 3 7 1 16 -5 20 -7 3 -11 -2 -11 -14 0 -12 -4 -21 -10 -21 -5
0 -10 9 -10 20 0 11 5 20 10 20 14 0 12 37 -2 47 -9 5 -1 10 22 13 29 4 36 10
38 32 3 21 -2 27 -20 31 -21 4 -21 4 4 6 14 0 29 -5 31 -11 4 -9 6 -8 6 2 1
16 75 45 194 75 37 10 70 21 73 26 8 13 -100 11 -114 -3 -6 -6 -37 -12 -69
-12 -32 -1 -61 -5 -65 -11 -5 -6 -12 -4 -18 5 -8 13 1 15 60 18 47 2 70 7 70
15 0 17 351 93 413 90 15 -1 25 2 22 6 -2 5 1 11 9 14 23 9 219 56 261 63 22
3 58 12 80 19 84 27 284 75 379 90 55 9 104 18 108 21 5 3 87 6 183 6 l175 0
0 125 0 125 -45 68 c-39 59 -93 165 -96 188 0 4 -6 14 -13 22 -7 8 -21 38 -31
65 -10 28 -27 65 -37 83 -11 19 -16 42 -13 53 4 13 2 19 -5 17 -7 -2 -15 3
-17 10 -4 9 5 12 31 10 19 -1 38 1 42 5 4 4 -8 8 -27 8 -59 2 -64 4 -64 19 0
8 -7 18 -15 23 -9 4 -5 6 10 3 14 -3 71 -6 127 -7 111 -1 113 -2 113 -72 0
-15 6 -43 14 -61 8 -19 11 -38 6 -42 -4 -5 -2 -25 5 -44 11 -29 14 104 14 813
l1 847 -91 0 -91 0 6 -42 c3 -24 6 -83 6 -133 0 -193 5 -299 14 -313 3 -5 8
-65 10 -133 3 -68 7 -131 11 -140 3 -10 2 -20 -4 -23 -6 -4 -7 -14 -4 -23 5
-13 1 -15 -20 -11 -15 3 -27 1 -27 -3 0 -5 7 -9 16 -9 8 0 13 -4 10 -9 -8 -12
-107 -1 -133 15 -12 8 -29 14 -38 14 -8 0 -15 5 -15 11 0 6 12 9 28 7 25 -3
27 -1 28 37 1 29 -5 46 -21 60 -17 16 -22 33 -24 83 -1 35 2 69 7 75 5 7 12
30 15 52 3 22 13 81 22 130 9 50 19 115 22 145 3 32 11 59 21 66 8 6 12 15 9
21 -6 9 2 53 17 101 l8 23 -124 -3 -123 -3 3 -27 c2 -21 -2 -28 -15 -29 -11 0
-13 -3 -5 -6 6 -2 12 -11 12 -18 0 -7 5 -15 12 -17 8 -3 13 -32 14 -84 1 -43
5 -101 9 -129 3 -27 7 -76 9 -107 2 -31 7 -61 10 -67 4 -5 7 -38 7 -73 2 -128
0 -145 -16 -145 -8 0 -15 4 -15 9 0 4 6 8 12 8 7 0 4 6 -7 14 -28 19 -125 32
-125 16 0 -9 -4 -9 -12 -3 -7 6 -25 10 -40 9 -16 -1 -28 1 -28 5 0 3 -24 6
-52 7 -211 3 -506 13 -523 16 -11 3 -30 5 -42 5 -27 1 -31 26 -5 36 16 6 16 7
-2 21 -19 14 -19 14 0 36 11 13 19 34 18 47 -1 22 1 23 37 17 31 -5 39 -3 39
9 0 8 -6 15 -12 15 -10 0 -9 3 1 9 10 6 10 10 1 16 -9 6 -9 9 -1 15 9 5 8 10
-2 18 -16 14 -61 -13 -51 -30 5 -7 2 -8 -5 -4 -9 6 -9 12 3 25 9 10 16 24 16
32 0 11 15 14 63 14 34 0 68 -4 76 -9 11 -7 12 0 10 38 -3 33 0 47 10 51 8 3
16 3 19 0 3 -3 0 -5 -6 -5 -7 0 -12 -4 -12 -10 0 -5 17 -7 40 -4 28 4 40 2 40
-7 0 -7 3 -9 7 -6 4 4 6 30 4 57 -2 49 -1 50 23 46 30 -5 36 2 25 29 l-8 20
-1 -20 -1 -20 -9 20 c-8 18 -9 19 -9 1 -1 -12 -6 -16 -16 -12 -8 3 -14 2 -14
-2 1 -4 1 -23 0 -43 -1 -30 -5 -38 -23 -41 -22 -4 -23 -1 -22 57 0 33 6 70 12
81 6 10 12 13 12 7 0 -17 20 -17 20 0 0 9 11 12 36 10 43 -3 39 6 -8 18 l-33
9 37 -4 c22 -3 39 0 42 7 3 9 5 9 5 0 1 -20 21 -15 22 5 0 14 2 14 9 -3 8 -18
9 -18 10 5 2 14 2 29 1 33 -1 5 2 6 7 3 5 -3 18 1 28 9 21 16 60 20 68 7 3 -5
-8 -6 -24 -4 -33 5 -50 -16 -50 -64 0 -8 -5 -12 -10 -9 -6 4 -10 3 -9 -2 6
-32 -3 -43 -33 -43 -40 0 -33 -7 12 -12 31 -3 35 -1 32 19 -3 18 1 21 19 18
32 -6 41 3 27 28 -20 36 -20 57 0 57 10 0 23 -5 30 -12 7 -7 12 -8 12 -3 0 6
5 3 10 -5 8 -12 10 -9 10 12 0 24 4 27 43 31 23 2 -1 4 -53 4 -59 0 -98 -4
-102 -11 -6 -8 -8 -7 -8 2 0 9 -282 12 -1375 12 l-1375 0 0 -1785z m2550 1605
c0 -5 -5 -10 -11 -10 -5 0 -7 5 -4 10 3 6 8 10 11 10 2 0 4 -4 4 -10z m-50
-96 c0 -8 -19 -13 -24 -6 -3 5 1 9 9 9 8 0 15 -2 15 -3z m-22 -31 c-10 -2 -26
-2 -35 0 -10 3 -2 5 17 5 19 0 27 -2 18 -5z m-227 -205 c0 -10 2 -10 6 0 2 6
13 12 22 12 12 0 17 -7 15 -22 -1 -13 -3 -26 -3 -30 -1 -5 -8 -8 -17 -8 -8 0
-13 4 -9 9 3 5 0 13 -6 17 -8 5 -9 3 -4 -6 6 -9 2 -10 -15 -5 -18 6 -22 4 -18
-7 4 -9 -2 -14 -15 -16 -17 -1 -19 1 -7 8 13 9 13 11 0 20 -13 9 -13 10 0 11
8 1 18 1 23 0 4 0 7 6 7 14 0 18 20 20 21 3z m7 -73 c-3 -3 -9 2 -12 12 -6 14
-5 15 5 6 7 -7 10 -15 7 -18z m57 5 c-3 -5 -12 -10 -20 -10 -8 0 -17 5 -20 10
-4 6 5 10 20 10 15 0 24 -4 20 -10z m-223 -15 c0 -5 -5 -11 -11 -13 -6 -2 -11
4 -11 13 0 9 5 15 11 13 6 -2 11 -8 11 -13z m835 -71 c-3 -3 -12 -4 -19 -1 -8
3 -5 6 6 6 11 1 17 -2 13 -5z m176 -41 c-7 -2 -21 -2 -30 0 -10 3 -4 5 12 5
17 0 24 -2 18 -5z m-45 -15 c7 -7 12 -17 12 -22 0 -6 -5 -3 -11 7 -6 9 -14 15
-20 12 -5 -4 -9 -1 -9 4 0 14 13 14 28 -1z m99 -11 c0 -7 -16 -13 -39 -14 -38
-3 -54 12 -20 19 40 8 59 7 59 -5z m-937 -36 l25 -7 -25 -8 c-14 -5 -30 -8
-37 -7 -6 1 -14 -3 -18 -9 -8 -13 -25 -13 -25 0 0 6 7 10 15 10 26 0 16 19
-12 23 -20 3 -16 4 12 5 22 0 51 -3 65 -7z m61 -9 c-7 -2 -18 1 -23 6 -8 8 -4
9 13 5 13 -4 18 -8 10 -11z m414 -7 c203 -22 287 -37 277 -47 -7 -7 -317 -10
-552 -4 -56 1 -59 4 -49 46 3 11 -5 15 -33 15 -20 0 -34 4 -31 9 7 11 207 1
388 -19z m595 21 c0 -11 -19 -15 -25 -6 -3 5 1 10 9 10 9 0 16 -2 16 -4z
m-935 -33 c-2 -10 -4 -21 -4 -25 -1 -5 -16 -8 -33 -7 -31 1 -32 1 -8 9 14 4
19 8 11 9 -11 1 -11 4 -1 16 17 21 39 19 35 -2z m-65 -4 c0 -7 -9 -9 -21 -6
-12 3 -22 0 -26 -9 -12 -31 -24 -10 -14 24 3 8 61 0 61 -9z m909 -20 c11 -19
11 -21 -4 -15 -9 3 -19 6 -21 6 -2 0 -4 7 -4 15 0 21 13 19 29 -6z m-142 -15
c12 -3 24 -12 27 -20 4 -11 2 -12 -14 -4 -10 5 -28 10 -39 10 -11 0 -23 5 -26
10 -7 11 18 13 52 4z m-37 -34 c0 -5 -5 -10 -11 -10 -5 0 -7 5 -4 10 3 6 8 10
11 10 2 0 4 -4 4 -10z m155 -18 c-3 -3 -11 0 -18 7 -9 10 -8 11 6 5 10 -3 15
-9 12 -12z m54 -17 c16 -8 31 -21 34 -30 8 -19 -7 -20 -25 -1 -8 7 -24 17 -36
20 -12 4 -20 12 -17 17 8 12 11 12 44 -6z m-89 -16 c0 -5 11 -9 24 -9 17 0 25
-7 28 -25 4 -16 1 -25 -8 -25 -7 0 -16 -5 -20 -12 -4 -6 -3 -8 4 -4 6 3 17 -1
25 -9 21 -21 31 -19 66 11 30 25 31 25 31 5 0 -15 -10 -23 -40 -31 -22 -6 -45
-8 -51 -4 -6 3 -19 -2 -30 -12 -16 -14 -19 -15 -14 -2 7 16 -20 33 -36 22 -5
-3 -14 8 -20 25 -6 17 -19 33 -30 36 -20 7 -26 25 -8 25 5 0 8 4 5 8 -2 4 13
9 35 9 21 1 39 -2 39 -8z m-160 -59 c0 -5 -4 -10 -10 -10 -5 0 -10 5 -10 10 0
6 5 10 10 10 6 0 10 -4 10 -10z m435 -29 c3 -5 19 -12 36 -16 30 -7 30 -7 28
-68 -2 -40 1 -62 9 -65 17 -5 15 -29 -4 -36 -24 -9 -207 -7 -223 3 -9 6 -10
11 -2 15 6 4 11 19 11 34 0 16 11 37 25 51 14 13 25 27 25 32 0 5 5 9 10 9 6
0 9 -3 9 -7 -3 -21 2 -33 15 -33 8 0 16 -10 19 -22 3 -21 4 -21 11 -5 6 12 3
22 -9 31 -16 11 -14 14 20 30 36 17 36 18 16 32 -16 11 -26 12 -41 4 -16 -9
-18 -8 -14 5 7 16 49 21 59 6z m-220 -41 c-3 -5 -11 -10 -16 -10 -6 0 -7 5 -4
10 3 6 11 10 16 10 6 0 7 -4 4 -10z m-55 -10 c8 -5 10 -10 4 -10 -6 0 -26 -3
-43 -6 -19 -4 -31 -2 -31 4 0 6 10 13 23 15 12 2 24 5 27 5 3 1 12 -3 20 -8z
m90 -115 c-7 -8 -20 -15 -28 -15 -13 0 -12 3 4 15 25 19 40 19 24 0z m-1005
-74 c66 -12 115 -53 115 -95 0 -20 -24 -21 -40 -1 -14 17 -31 16 -32 0 0 -6
-4 -16 -10 -23 -15 -17 -38 3 -38 34 0 24 -14 32 -25 14 -11 -17 -37 -11 -32
8 2 9 -5 32 -16 51 l-20 34 29 -7 c16 -4 47 -10 69 -15z m-725 -30 c0 -14 -50
-51 -68 -51 -9 0 -26 -10 -39 -22 -18 -17 -26 -19 -35 -10 -16 16 -2 40 42 70
33 22 100 31 100 13z m2044 -109 c5 -9 -9 -13 -56 -14 -101 -3 -128 0 -158 22
-17 12 -30 16 -32 10 -2 -8 -11 -8 -28 -2 -30 12 -18 18 51 26 26 3 80 18 120
35 l74 29 11 -47 c5 -26 14 -52 18 -59z m-1601 38 c28 -13 55 -18 74 -14 20 4
33 1 42 -10 8 -10 29 -16 52 -16 32 0 39 -3 39 -20 0 -20 15 -28 22 -11 2 5
12 11 23 13 14 2 20 -2 19 -14 -1 -10 4 -14 12 -11 18 7 44 -14 44 -35 0 -9
-12 -34 -27 -55 -25 -36 -26 -40 -10 -52 9 -7 17 -24 17 -38 0 -13 7 -27 15
-31 8 -3 15 -12 15 -21 0 -22 8 -19 52 21 29 26 43 33 51 25 6 -6 19 -11 29
-11 19 0 22 -5 32 -52 6 -24 3 -28 -17 -28 -13 0 -32 -9 -42 -20 -10 -11 -22
-20 -27 -20 -5 0 -25 -12 -43 -26 -19 -14 -39 -23 -45 -19 -5 3 -10 1 -10 -4
0 -6 -6 -11 -14 -11 -24 0 -29 -20 -10 -35 27 -21 210 -21 217 0 9 21 -4 25
-52 14 -46 -10 -91 -8 -92 5 0 12 72 66 97 72 13 3 27 3 32 0 6 -3 13 1 16 10
7 19 56 15 66 -6 4 -8 12 -26 19 -38 20 -38 -3 -106 -24 -72 -11 19 -23 1 -22
-34 1 -27 4 -32 19 -28 21 5 23 -9 6 -55 -7 -18 -20 -35 -30 -39 -19 -6 -25
-48 -8 -59 19 -11 11 -57 -10 -62 -11 -3 -18 -9 -15 -13 8 -13 -45 -70 -66
-70 -10 0 -19 -4 -19 -9 0 -5 -30 -39 -67 -75 -48 -48 -61 -66 -48 -66 33 0
-5 -29 -42 -32 -17 -1 -31 -6 -30 -11 4 -16 -98 -49 -182 -57 -74 -8 -88 -7
-122 10 -21 11 -45 17 -53 14 -9 -3 -23 -3 -32 0 -15 6 -15 8 1 26 10 11 21
17 25 15 4 -3 13 2 20 10 7 8 32 24 56 35 31 13 44 25 44 39 0 11 9 22 20 26
34 11 12 24 -32 19 -31 -3 -44 1 -54 14 -10 14 -15 15 -25 5 -18 -18 -49 -16
-49 2 0 8 -4 15 -9 15 -5 0 -14 -7 -21 -15 -16 -19 -54 -19 -127 0 -78 20
-123 43 -123 62 0 9 -6 13 -14 10 -8 -3 -22 1 -33 8 -46 36 -90 6 -95 -65 -2
-37 -7 -46 -24 -48 -30 -4 -53 28 -60 86 -7 58 11 92 48 92 25 0 24 46 -1 59
-16 9 -18 8 -14 -8 5 -21 -6 -30 -51 -41 -17 -4 -39 -11 -48 -15 -25 -10 -58
48 -58 103 0 35 -4 45 -20 49 -25 7 -26 29 -1 36 16 4 20 16 23 68 5 76 -5
111 -27 103 -19 -8 -55 23 -55 47 0 27 38 49 66 39 22 -9 24 -7 24 21 0 17 5
39 10 50 8 14 7 19 -3 19 -30 0 -36 22 -17 59 18 35 80 103 80 87 0 -4 16 9
34 29 40 42 71 44 72 5 1 -56 73 -135 74 -82 1 16 2 15 15 -2 8 -10 12 -23 9
-27 -2 -4 5 -13 16 -19 23 -13 25 -3 5 24 -31 41 -10 91 33 79 15 -4 22 -1 22
10 0 18 46 50 63 44 7 -2 28 2 47 11 38 16 198 24 216 10 7 -5 17 -2 24 7 15
18 9 19 63 -5z m1177 -42 c0 -6 -6 -5 -15 2 -8 7 -15 14 -15 16 0 2 7 1 15 -2
8 -4 15 -11 15 -16z m-1876 -4 c9 -22 -1 -33 -24 -27 -23 6 -25 14 -8 31 16
16 25 15 32 -4z m1146 -16 l20 -33 -24 -24 c-30 -30 -61 -23 -50 11 5 13 8 35
8 51 -1 37 22 35 46 -5z m346 -89 c38 -11 89 -33 114 -47 25 -15 50 -29 57
-32 23 -10 229 -178 306 -250 83 -78 110 -120 121 -187 5 -34 3 -43 -11 -47
-10 -3 -27 -23 -38 -43 -46 -86 -276 -173 -793 -299 -106 -25 -195 -45 -197
-42 -3 2 24 26 60 52 71 52 163 152 190 206 10 19 23 42 30 50 19 23 72 157
91 229 12 50 15 96 11 220 -3 86 -8 168 -12 184 -4 15 -5 27 -2 27 3 0 36 -9
73 -21z m514 -74 c17 -33 39 -69 48 -80 18 -21 36 -51 61 -100 8 -16 19 -34
23 -40 5 -5 18 -21 29 -35 12 -14 27 -38 35 -55 7 -16 31 -47 54 -69 22 -21
38 -41 35 -44 -3 -3 -18 6 -33 20 -15 14 -39 33 -54 43 -16 9 -28 24 -28 31 0
8 -4 14 -10 14 -5 0 -10 6 -10 13 0 7 -18 31 -40 52 -22 21 -40 45 -40 52 0 7
-5 13 -11 13 -5 0 -7 5 -4 11 4 5 -1 19 -10 29 -12 13 -15 28 -11 44 3 14 2
28 -4 31 -5 3 -10 -1 -10 -9 0 -34 -19 -14 -25 27 -8 43 -27 81 -37 71 -3 -3
-9 -1 -13 5 -3 6 -1 11 5 11 7 0 9 8 5 23 -11 36 10 9 45 -58z m-920 -6 c0 -5
-9 -13 -21 -19 -36 -20 -67 28 -37 58 9 9 17 7 35 -10 13 -12 23 -25 23 -29z
m-1343 -164 c3 -175 20 -251 85 -380 97 -193 284 -349 513 -429 19 -7 19 -8 2
-17 -24 -14 -321 -15 -453 -1 -133 13 -298 52 -339 79 -11 7 -29 13 -42 13
-12 0 -25 5 -28 10 -3 6 -1 10 6 10 8 0 8 4 -1 15 -7 8 -18 15 -25 15 -8 0
-22 11 -33 25 -11 14 -28 25 -38 25 -18 1 -18 1 0 15 19 15 19 15 -3 15 -17 0
-22 4 -17 16 3 9 2 12 -4 9 -7 -4 -10 9 -8 36 2 31 -1 43 -12 46 -10 3 -11 2
-3 -4 7 -5 10 -17 8 -28 -2 -11 -4 -28 -4 -39 -1 -15 -4 -16 -16 -6 -8 7 -15
19 -15 26 0 8 -5 14 -11 14 -8 0 -7 5 2 16 18 22 23 85 7 95 -10 7 -10 9 0 9
7 0 12 14 12 34 0 19 6 37 13 40 6 3 0 4 -15 1 -20 -4 -26 -1 -24 11 1 9 7 19
12 22 15 10 11 34 -6 41 -22 9 -27 71 -6 71 15 0 22 21 16 45 -1 6 -3 16 -3
23 0 9 -9 12 -23 9 -14 -2 -25 2 -28 9 -3 8 2 14 12 15 14 0 14 2 -3 10 -14 6
-5 8 33 5 36 -3 50 -1 46 6 -4 6 1 17 11 25 17 12 16 13 -13 14 -54 2 -57 3
-57 19 0 8 11 17 25 20 15 4 25 12 24 22 -1 9 4 19 11 22 9 3 11 -3 8 -17 -4
-19 -3 -20 9 -7 23 26 78 61 111 72 81 25 186 46 222 45 l40 -2 2 -140z m1533
125 c13 -25 5 -40 -21 -40 -13 0 -19 7 -19 23 0 41 22 50 40 17z m55 -106 c0
-10 -8 -20 -17 -22 -18 -3 -26 27 -11 42 12 11 28 0 28 -20z m-1097 -550 c24
-17 29 -40 10 -47 -15 -5 -88 30 -88 42 0 25 45 28 78 5z m-109 -360 c37 -8
40 -21 7 -34 -25 -9 -301 -18 -310 -9 -3 2 -1 11 4 19 13 21 227 38 299 24z
m431 -68 c0 -2 -7 -6 -15 -10 -8 -3 -15 -1 -15 4 0 6 7 10 15 10 8 0 15 -2 15
-4z m185 -536 c3 -5 -1 -10 -10 -10 -9 0 -13 5 -10 10 3 6 8 10 10 10 2 0 7
-4 10 -10z m65 -107 c0 -13 -4 -10 -15 11 -19 36 -19 41 0 22 8 -8 15 -23 15
-33z m107 -37 c-5 -16 -27 -19 -27 -3 0 7 7 14 15 14 9 0 14 -5 12 -11z m50
-98 c-3 -8 -6 -5 -6 6 -1 11 2 17 5 13 3 -3 4 -12 1 -19z"/>
<path d="M3115 2580 c3 -5 11 -10 16 -10 6 0 7 5 4 10 -3 6 -11 10 -16 10 -6
0 -7 -4 -4 -10z"/>
<path d="M3425 2487 c-12 -7 -19 -20 -17 -29 2 -10 -1 -18 -7 -18 -6 0 -11 -5
-11 -11 0 -8 4 -9 13 0 8 6 17 7 22 3 4 -4 5 3 1 14 -5 16 -2 23 14 27 11 3
20 10 20 16 0 13 -9 13 -35 -2z"/>
<path d="M3300 2460 c-13 -8 -12 -10 3 -10 9 0 17 5 17 10 0 12 -1 12 -20 0z"/>
<path d="M3283 2422 c0 -10 9 -19 21 -20 10 0 22 -6 26 -13 5 -8 13 -8 25 -2
15 9 11 13 -24 31 -50 26 -50 26 -48 4z"/>
<path d="M3376 2205 c-3 -8 -1 -15 3 -15 5 0 11 7 15 15 3 8 1 15 -3 15 -5 0
-11 -7 -15 -15z"/>
<path d="M2160 2104 c0 -8 9 -14 20 -14 11 0 20 4 20 9 0 5 -9 11 -20 14 -13
3 -20 0 -20 -9z"/>
<path d="M1594 2065 c28 -15 51 -12 41 6 -4 5 -21 9 -38 9 l-32 0 29 -15z"/>
<path d="M1629 1947 c-32 -22 -41 -34 -73 -104 -19 -44 -1 -52 23 -11 11 18
25 38 30 45 6 7 11 17 11 22 0 6 6 14 13 18 12 8 41 53 34 53 -2 0 -19 -10
-38 -23z"/>
<path d="M1920 1961 c0 -5 10 -12 23 -15 12 -4 48 -30 80 -60 55 -49 58 -55
55 -92 -3 -32 -5 -36 -13 -19 -5 11 -25 43 -46 71 -54 74 -115 87 -269 59
l-35 -7 25 21 c24 20 25 21 3 21 -23 0 -83 -30 -83 -42 0 -5 -6 -8 -14 -8 -8
0 -17 -10 -21 -22 -6 -23 -21 -60 -35 -88 -4 -8 -24 -16 -46 -18 -21 -2 -44
-8 -51 -14 -7 -5 -17 -7 -23 -3 -5 3 -10 -1 -10 -10 0 -9 -4 -13 -10 -10 -16
10 -12 23 10 30 30 9 13 28 -21 23 -16 -3 -29 -1 -29 4 0 16 -50 59 -61 53 -5
-4 -14 -17 -19 -30 -7 -17 -18 -25 -42 -27 -26 -2 -34 -8 -36 -27 -2 -13 0
-21 5 -18 4 2 19 0 32 -5 l25 -9 -27 -25 c-15 -14 -27 -29 -27 -34 0 -4 33
-11 74 -15 58 -6 79 -4 95 7 12 8 18 19 13 24 -4 5 2 1 14 -9 30 -25 46 -22
38 7 -4 18 0 28 17 40 37 26 56 20 62 -18 3 -18 15 -54 26 -79 12 -25 21 -51
21 -56 0 -31 255 -106 283 -83 7 5 32 13 57 17 73 12 153 63 180 113 20 40 2
37 -34 -4 -19 -21 -37 -36 -42 -32 -4 5 0 16 9 25 8 10 19 32 23 48 4 17 10
35 14 40 20 25 13 73 -22 160 -21 53 -41 74 -100 105 -40 21 -68 26 -68 11z
m43 -100 c40 -40 31 -48 -16 -14 -28 20 -54 28 -100 32 -53 4 -57 6 -32 12 59
15 115 4 148 -30z m-309 -49 c-15 -32 -34 -43 -34 -20 0 12 41 60 47 55 2 -2
-4 -18 -13 -35z m421 -149 c-4 -10 -10 -26 -12 -35 -4 -15 -23 -26 -23 -14 0
16 24 66 32 66 6 0 7 -8 3 -17z m-441 -9 c11 -27 7 -37 -9 -24 -16 14 -20 40
-6 40 5 0 12 -7 15 -16z"/>
<path d="M2158 1733 c7 -3 16 -2 19 1 4 3 -2 6 -13 5 -11 0 -14 -3 -6 -6z"/>
<path d="M2300 1662 c0 -13 55 -32 93 -32 39 0 28 10 -20 20 -21 4 -46 11 -55
15 -10 4 -18 3 -18 -3z"/>
<path d="M2262 1568 c3 -7 18 -14 34 -16 28 -2 28 -2 10 13 -24 18 -49 20 -44
3z"/>
<path d="M1604 1456 c-3 -8 -14 -18 -25 -21 -30 -10 -22 -22 11 -17 23 3 30 0
30 -13 0 -12 5 -15 16 -11 9 3 20 6 25 6 20 0 7 30 -21 50 -26 18 -31 19 -36
6z"/>
<path d="M3326 1827 c3 -10 9 -15 12 -12 3 3 0 11 -7 18 -10 9 -11 8 -5 -6z"/>
<path d="M565 1601 c-3 -6 1 -11 9 -11 15 0 21 -12 17 -33 -1 -5 3 -6 8 -2 12
7 -1 47 -17 53 -5 1 -13 -2 -17 -7z"/>
<path d="M3046 3556 c8 -21 36 -29 46 -14 13 22 9 28 -22 28 -21 0 -28 -4 -24
-14z"/>
<path d="M2586 3432 c-3 -4 4 -9 15 -9 23 -2 25 3 4 10 -8 4 -16 3 -19 -1z"/>
<path d="M3313 2867 c4 -14 26 -16 30 -3 1 5 -6 10 -16 12 -10 1 -16 -3 -14
-9z"/>
<path d="M3410 2840 c-13 -8 -13 -10 2 -10 9 0 20 5 23 10 8 13 -5 13 -25 0z"/>
<path d="M3320 2830 c0 -5 5 -10 10 -10 6 0 10 5 10 10 0 6 -4 10 -10 10 -5 0
-10 -4 -10 -10z"/>
<path d="M3397 2800 c-3 -12 -11 -18 -19 -15 -18 7 -74 -9 -70 -21 3 -11 23
-13 37 -3 6 4 24 10 42 13 30 7 48 27 36 40 -11 11 -21 6 -26 -14z"/>
<path d="M3340 1282 c0 -4 9 -8 20 -9 11 -1 20 2 20 8 0 5 -9 9 -20 9 -11 0
-20 -4 -20 -8z"/>
<path d="M3288 1263 c7 -3 16 -2 19 1 4 3 -2 6 -13 5 -11 0 -14 -3 -6 -6z"/>
<path d="M3206 1227 c3 -10 9 -15 12 -12 3 3 0 11 -7 18 -10 9 -11 8 -5 -6z"/>
<path d="M2981 1164 c0 -11 3 -14 6 -6 3 7 2 16 -1 19 -3 4 -6 -2 -5 -13z"/>
<path d="M2780 1150 c0 -5 6 -10 14 -10 8 0 17 -6 19 -12 3 -7 6 -3 6 10 1 16
-5 22 -19 22 -11 0 -20 -4 -20 -10z"/>
<path d="M2600 1140 c0 -5 5 -10 10 -10 6 0 10 5 10 10 0 6 -4 10 -10 10 -5 0
-10 -4 -10 -10z"/>
<path d="M2755 1130 c-3 -5 -1 -10 4 -10 6 0 11 5 11 10 0 6 -2 10 -4 10 -3 0
-8 -4 -11 -10z"/>
<path d="M3227 1129 c7 -7 15 -10 18 -7 3 3 -2 9 -12 12 -14 6 -15 5 -6 -5z"/>
<path d="M2710 1120 c0 -5 -7 -7 -15 -4 -9 4 -15 0 -15 -10 0 -9 -3 -15 -7
-14 -5 2 -28 -7 -53 -19 -25 -12 -92 -38 -150 -57 -85 -29 -98 -35 -68 -36 20
0 38 5 40 11 2 6 16 12 31 12 15 0 27 4 27 9 0 6 14 8 30 6 17 -3 30 -1 30 3
0 4 14 10 30 14 17 4 30 11 30 16 0 5 5 9 11 9 5 0 7 -4 4 -10 -3 -5 -1 -10 4
-10 6 0 11 5 11 11 0 6 10 9 23 7 15 -2 21 -9 19 -23 l-2 -20 12 20 c12 20 14
25 17 45 0 6 7 9 14 8 6 -2 11 2 10 8 -1 7 6 10 17 7 17 -4 20 -14 20 -56 0
-66 7 -57 11 13 3 51 1 55 -18 52 -12 -2 -24 2 -28 8 -8 13 -35 13 -35 0z"/>
<path d="M3491 1113 c-1 -7 -8 -13 -16 -13 -8 0 -15 -5 -15 -11 0 -6 -6 -9
-12 -6 -7 2 -21 -3 -32 -12 -19 -17 -66 -23 -66 -9 0 14 -49 9 -57 -6 -12 -20
-142 -39 -162 -23 -14 10 -14 10 -3 -5 17 -21 1 -32 -47 -30 -19 1 -39 -4 -44
-11 -7 -9 -10 -9 -14 2 -4 10 -7 10 -13 1 -4 -6 -29 -14 -56 -17 -58 -6 -254
6 -251 15 1 4 -2 8 -7 9 -5 1 -12 6 -16 12 -9 16 -40 3 -34 -14 4 -8 -3 -15
-18 -17 -13 -2 101 -10 252 -17 151 -7 282 -15 290 -17 8 -1 98 -3 200 -3 113
-1 180 -5 175 -10 -6 -5 -53 -21 -105 -36 -200 -55 -284 -86 -400 -145 -30
-16 -86 -34 -123 -41 -52 -10 -67 -16 -65 -28 6 -25 75 -17 160 18 40 16 127
52 194 79 107 44 219 81 352 115 l42 10 0 99 0 98 -49 0 c-30 0 -51 5 -54 13
-4 10 -6 10 -6 0z"/>
<path d="M2762 1065 c0 -16 2 -22 5 -12 2 9 2 23 0 30 -3 6 -5 -1 -5 -18z"/>
<path d="M2722 1020 c0 -14 2 -19 5 -12 2 6 2 18 0 25 -3 6 -5 1 -5 -13z"/>
<path d="M2838 1018 c5 -19 7 -20 10 -5 2 10 13 17 27 17 14 0 25 -7 27 -17 3
-15 5 -14 10 5 6 20 3 22 -37 22 -40 0 -43 -2 -37 -22z"/>
<path d="M2827 988 c5 -10 120 -8 153 2 15 5 -10 7 -66 6 -51 0 -90 -4 -87 -8z"/>
<path d="M2553 973 c9 -2 25 -2 35 0 9 3 1 5 -18 5 -19 0 -27 -2 -17 -5z"/>
<path d="M1907 893 c-11 -10 -8 -35 3 -28 6 4 8 10 5 15 -3 4 1 11 7 13 7 3 8
6 2 6 -6 1 -14 -2 -17 -6z"/>
<path d="M1850 861 c0 -11 -4 -23 -10 -26 -5 -3 -10 -12 -10 -18 0 -7 4 -6 10
3 5 8 17 15 26 15 10 0 19 7 21 15 4 13 3 13 -6 0 -9 -12 -11 -11 -11 8 0 12
-4 22 -10 22 -5 0 -10 -9 -10 -19z"/>
<path d="M2800 850 c0 -5 6 -10 14 -10 8 0 18 5 21 10 3 6 -3 10 -14 10 -12 0
-21 -4 -21 -10z"/>
<path d="M2908 853 c7 -3 16 -2 19 1 4 3 -2 6 -13 5 -11 0 -14 -3 -6 -6z"/>
<path d="M2878 833 c6 -2 18 -2 25 0 6 3 1 5 -13 5 -14 0 -19 -2 -12 -5z"/>
<path d="M2695 801 c-25 -6 -27 -8 -11 -14 10 -4 24 -3 31 3 6 5 15 7 18 3 4
-3 7 -1 7 5 0 13 0 13 -45 3z"/>
<path d="M2642 781 c2 -7 7 -12 11 -12 12 1 9 15 -3 20 -7 2 -11 -2 -8 -8z"/>
<path d="M2582 764 c-12 -8 -22 -12 -22 -7 0 4 -15 -9 -32 -29 -20 -23 -45
-38 -63 -41 -16 -3 -48 -15 -70 -28 l-40 -24 49 -3 c27 -2 56 0 65 4 9 3 34 8
56 10 158 14 215 21 220 26 2 2 1 15 -2 31 -6 30 -17 33 -53 12 -34 -20 -47
-18 -60 5 -9 16 -8 18 5 14 23 -9 19 23 -4 36 -25 13 -22 13 -49 -6z m40 -58
c14 -20 8 -28 -8 -12 -8 9 -20 16 -25 16 -5 0 -9 4 -9 10 0 11 32 1 42 -14z
m-37 -10 c7 3 15 1 18 -3 3 -5 -6 -8 -21 -7 -42 2 -44 3 -30 18 11 12 14 12
16 1 2 -8 9 -12 17 -9z"/>
<path d="M2707 763 c-4 -3 -7 -13 -7 -21 0 -18 13 -7 16 13 2 17 1 18 -9 8z"/>
<path d="M2910 766 c0 -11 30 -39 36 -34 2 3 -5 13 -16 23 -11 10 -20 15 -20
11z"/>
<path d="M2785 690 c-16 -7 -17 -9 -3 -9 9 -1 20 4 23 9 7 11 7 11 -20 0z"/>
</g>
</svg>
